<mxfile host="app.diagrams.net" modified="2023-09-29T12:09:07.589Z" agent="Mozilla/5.0 (Windows NT 10.0; Win64; x64; rv:109.0) Gecko/20100101 Firefox/118.0" etag="GTMfijIcXBgCoZKBsa-I" version="22.0.0" type="github">
  <diagram name="第 1 页" id="wzWqu_NDBlNz9rzBtW4h">
    <mxGraphModel dx="955" dy="489" grid="1" gridSize="10" guides="1" tooltips="1" connect="1" arrows="1" fold="1" page="1" pageScale="1" pageWidth="827" pageHeight="1169" math="0" shadow="0">
      <root>
        <mxCell id="0" />
        <mxCell id="1" parent="0" />
        <mxCell id="QcV7owO9z0A4q8P35Pxc-35" style="edgeStyle=orthogonalEdgeStyle;rounded=0;orthogonalLoop=1;jettySize=auto;html=1;entryX=0;entryY=0.5;entryDx=0;entryDy=0;" edge="1" parent="1" source="QcV7owO9z0A4q8P35Pxc-1" target="QcV7owO9z0A4q8P35Pxc-34">
          <mxGeometry relative="1" as="geometry" />
        </mxCell>
        <mxCell id="QcV7owO9z0A4q8P35Pxc-1" value="" style="ellipse;whiteSpace=wrap;html=1;aspect=fixed;" vertex="1" parent="1">
          <mxGeometry y="200" width="40" height="40" as="geometry" />
        </mxCell>
        <mxCell id="QcV7owO9z0A4q8P35Pxc-4" value="" style="endArrow=classic;html=1;rounded=0;exitX=1;exitY=0.5;exitDx=0;exitDy=0;entryX=0;entryY=0.5;entryDx=0;entryDy=0;" edge="1" parent="1">
          <mxGeometry width="50" height="50" relative="1" as="geometry">
            <mxPoint x="139.99999999999739" y="220" as="sourcePoint" />
            <mxPoint x="200" y="220" as="targetPoint" />
          </mxGeometry>
        </mxCell>
        <mxCell id="QcV7owO9z0A4q8P35Pxc-5" value="in database" style="rhombus;whiteSpace=wrap;html=1;" vertex="1" parent="1">
          <mxGeometry x="200" y="191.88" width="80" height="56.25" as="geometry" />
        </mxCell>
        <mxCell id="QcV7owO9z0A4q8P35Pxc-6" value="" style="endArrow=classic;html=1;rounded=0;" edge="1" parent="1">
          <mxGeometry width="50" height="50" relative="1" as="geometry">
            <mxPoint x="280" y="220" as="sourcePoint" />
            <mxPoint x="350" y="220" as="targetPoint" />
          </mxGeometry>
        </mxCell>
        <mxCell id="QcV7owO9z0A4q8P35Pxc-11" value="Yes" style="edgeLabel;html=1;align=center;verticalAlign=middle;resizable=0;points=[];" vertex="1" connectable="0" parent="QcV7owO9z0A4q8P35Pxc-6">
          <mxGeometry x="-0.2" y="-2" relative="1" as="geometry">
            <mxPoint as="offset" />
          </mxGeometry>
        </mxCell>
        <mxCell id="QcV7owO9z0A4q8P35Pxc-7" value="check credits" style="rhombus;whiteSpace=wrap;html=1;" vertex="1" parent="1">
          <mxGeometry x="350" y="191.88" width="80" height="56.25" as="geometry" />
        </mxCell>
        <mxCell id="QcV7owO9z0A4q8P35Pxc-8" value="enroll in DB" style="rounded=1;whiteSpace=wrap;html=1;" vertex="1" parent="1">
          <mxGeometry x="140" y="280" width="60" height="30" as="geometry" />
        </mxCell>
        <mxCell id="QcV7owO9z0A4q8P35Pxc-9" value="" style="endArrow=classic;html=1;rounded=0;exitX=0.5;exitY=0;exitDx=0;exitDy=0;" edge="1" parent="1" source="QcV7owO9z0A4q8P35Pxc-8">
          <mxGeometry width="50" height="50" relative="1" as="geometry">
            <mxPoint x="180" y="290" as="sourcePoint" />
            <mxPoint x="170" y="220" as="targetPoint" />
          </mxGeometry>
        </mxCell>
        <mxCell id="QcV7owO9z0A4q8P35Pxc-10" value="" style="endArrow=classic;html=1;rounded=0;exitX=0.5;exitY=1;exitDx=0;exitDy=0;entryX=1;entryY=0.5;entryDx=0;entryDy=0;" edge="1" parent="1" source="QcV7owO9z0A4q8P35Pxc-5" target="QcV7owO9z0A4q8P35Pxc-8">
          <mxGeometry width="50" height="50" relative="1" as="geometry">
            <mxPoint x="380" y="320" as="sourcePoint" />
            <mxPoint x="430" y="270" as="targetPoint" />
            <Array as="points">
              <mxPoint x="240" y="295" />
            </Array>
          </mxGeometry>
        </mxCell>
        <mxCell id="QcV7owO9z0A4q8P35Pxc-12" value="No" style="edgeLabel;html=1;align=center;verticalAlign=middle;resizable=0;points=[];" vertex="1" connectable="0" parent="QcV7owO9z0A4q8P35Pxc-10">
          <mxGeometry x="-0.4735" y="-2" relative="1" as="geometry">
            <mxPoint as="offset" />
          </mxGeometry>
        </mxCell>
        <mxCell id="QcV7owO9z0A4q8P35Pxc-13" value="requirements list production" style="rounded=1;whiteSpace=wrap;html=1;" vertex="1" parent="1">
          <mxGeometry x="514" y="200" width="80" height="40" as="geometry" />
        </mxCell>
        <mxCell id="QcV7owO9z0A4q8P35Pxc-14" value="" style="endArrow=classic;html=1;rounded=0;exitX=1;exitY=0.5;exitDx=0;exitDy=0;entryX=0;entryY=0.5;entryDx=0;entryDy=0;" edge="1" parent="1" target="QcV7owO9z0A4q8P35Pxc-13">
          <mxGeometry width="50" height="50" relative="1" as="geometry">
            <mxPoint x="430" y="219.5" as="sourcePoint" />
            <mxPoint x="490" y="219.5" as="targetPoint" />
          </mxGeometry>
        </mxCell>
        <mxCell id="QcV7owO9z0A4q8P35Pxc-15" value="Positive" style="edgeLabel;html=1;align=center;verticalAlign=middle;resizable=0;points=[];" vertex="1" connectable="0" parent="QcV7owO9z0A4q8P35Pxc-14">
          <mxGeometry x="-0.3" y="1" relative="1" as="geometry">
            <mxPoint x="11" y="1" as="offset" />
          </mxGeometry>
        </mxCell>
        <mxCell id="QcV7owO9z0A4q8P35Pxc-16" value="" style="endArrow=classic;html=1;rounded=0;" edge="1" parent="1">
          <mxGeometry width="50" height="50" relative="1" as="geometry">
            <mxPoint x="390" y="250" as="sourcePoint" />
            <mxPoint x="390" y="310" as="targetPoint" />
          </mxGeometry>
        </mxCell>
        <mxCell id="QcV7owO9z0A4q8P35Pxc-17" value="Questionable" style="edgeLabel;html=1;align=center;verticalAlign=middle;resizable=0;points=[];" vertex="1" connectable="0" parent="QcV7owO9z0A4q8P35Pxc-16">
          <mxGeometry x="-0.1667" relative="1" as="geometry">
            <mxPoint as="offset" />
          </mxGeometry>
        </mxCell>
        <mxCell id="QcV7owO9z0A4q8P35Pxc-19" value="" style="points=[[0.145,0.145,0],[0.5,0,0],[0.855,0.145,0],[1,0.5,0],[0.855,0.855,0],[0.5,1,0],[0.145,0.855,0],[0,0.5,0]];shape=mxgraph.bpmn.event;html=1;verticalLabelPosition=bottom;labelBackgroundColor=#ffffff;verticalAlign=top;align=center;perimeter=ellipsePerimeter;outlineConnect=0;aspect=fixed;outline=throwing;symbol=general;" vertex="1" parent="1">
          <mxGeometry x="770" y="290" width="50" height="50" as="geometry" />
        </mxCell>
        <mxCell id="QcV7owO9z0A4q8P35Pxc-21" value="advide next step" style="rhombus;whiteSpace=wrap;html=1;" vertex="1" parent="1">
          <mxGeometry x="350" y="310" width="80" height="56.25" as="geometry" />
        </mxCell>
        <mxCell id="QcV7owO9z0A4q8P35Pxc-22" value="" style="endArrow=classic;html=1;rounded=0;exitX=1;exitY=0.5;exitDx=0;exitDy=0;entryX=0.588;entryY=1.1;entryDx=0;entryDy=0;entryPerimeter=0;" edge="1" parent="1" target="QcV7owO9z0A4q8P35Pxc-13">
          <mxGeometry width="50" height="50" relative="1" as="geometry">
            <mxPoint x="430" y="337.63" as="sourcePoint" />
            <mxPoint x="550" y="340" as="targetPoint" />
            <Array as="points">
              <mxPoint x="560" y="340" />
            </Array>
          </mxGeometry>
        </mxCell>
        <mxCell id="QcV7owO9z0A4q8P35Pxc-24" value="proceed" style="edgeLabel;html=1;align=center;verticalAlign=middle;resizable=0;points=[];" vertex="1" connectable="0" parent="QcV7owO9z0A4q8P35Pxc-22">
          <mxGeometry x="-0.0832" relative="1" as="geometry">
            <mxPoint x="-44" y="-1" as="offset" />
          </mxGeometry>
        </mxCell>
        <mxCell id="QcV7owO9z0A4q8P35Pxc-25" value="" style="endArrow=classic;html=1;rounded=0;exitX=1;exitY=0.5;exitDx=0;exitDy=0;entryX=0;entryY=0.5;entryDx=0;entryDy=0;" edge="1" parent="1" target="QcV7owO9z0A4q8P35Pxc-30">
          <mxGeometry width="50" height="50" relative="1" as="geometry">
            <mxPoint x="390" y="366.25" as="sourcePoint" />
            <mxPoint x="620" y="420" as="targetPoint" />
            <Array as="points">
              <mxPoint x="390" y="420" />
            </Array>
          </mxGeometry>
        </mxCell>
        <mxCell id="QcV7owO9z0A4q8P35Pxc-27" value="not&amp;nbsp; proceed" style="edgeLabel;html=1;align=center;verticalAlign=middle;resizable=0;points=[];" vertex="1" connectable="0" parent="QcV7owO9z0A4q8P35Pxc-25">
          <mxGeometry x="0.1154" y="-3" relative="1" as="geometry">
            <mxPoint x="18" as="offset" />
          </mxGeometry>
        </mxCell>
        <mxCell id="QcV7owO9z0A4q8P35Pxc-36" style="edgeStyle=orthogonalEdgeStyle;rounded=0;orthogonalLoop=1;jettySize=auto;html=1;" edge="1" parent="1" source="QcV7owO9z0A4q8P35Pxc-28" target="QcV7owO9z0A4q8P35Pxc-19">
          <mxGeometry relative="1" as="geometry" />
        </mxCell>
        <mxCell id="QcV7owO9z0A4q8P35Pxc-28" value="send customer conformation" style="rounded=1;whiteSpace=wrap;html=1;" vertex="1" parent="1">
          <mxGeometry x="660" y="200" width="80" height="40" as="geometry" />
        </mxCell>
        <mxCell id="QcV7owO9z0A4q8P35Pxc-29" value="" style="endArrow=classic;html=1;rounded=0;entryX=0;entryY=0.5;entryDx=0;entryDy=0;exitX=1;exitY=0.5;exitDx=0;exitDy=0;" edge="1" parent="1" source="QcV7owO9z0A4q8P35Pxc-13" target="QcV7owO9z0A4q8P35Pxc-28">
          <mxGeometry width="50" height="50" relative="1" as="geometry">
            <mxPoint x="610" y="220" as="sourcePoint" />
            <mxPoint x="640" y="170" as="targetPoint" />
          </mxGeometry>
        </mxCell>
        <mxCell id="QcV7owO9z0A4q8P35Pxc-33" style="edgeStyle=orthogonalEdgeStyle;rounded=0;orthogonalLoop=1;jettySize=auto;html=1;entryX=0.5;entryY=1;entryDx=0;entryDy=0;entryPerimeter=0;" edge="1" parent="1" target="QcV7owO9z0A4q8P35Pxc-19">
          <mxGeometry relative="1" as="geometry">
            <mxPoint x="809.48" y="310" as="targetPoint" />
            <mxPoint x="739.48" y="421.913043478261" as="sourcePoint" />
          </mxGeometry>
        </mxCell>
        <mxCell id="QcV7owO9z0A4q8P35Pxc-30" value="send customer not fulfilled" style="rounded=1;whiteSpace=wrap;html=1;" vertex="1" parent="1">
          <mxGeometry x="660" y="400" width="80" height="43.75" as="geometry" />
        </mxCell>
        <mxCell id="QcV7owO9z0A4q8P35Pxc-34" value="oeder received" style="rounded=1;whiteSpace=wrap;html=1;" vertex="1" parent="1">
          <mxGeometry x="80" y="205" width="60" height="30" as="geometry" />
        </mxCell>
      </root>
    </mxGraphModel>
  </diagram>
</mxfile>
